
<global>
ampeg_attack=0.01
ampeg_release=0.35
</global>

<group>
group_label=Group_0-42
lpc_hicc1=42
lpc_locc1=0

<region>
hikey=a#2
hivel=127
lokey=a2
lovel=1
lpc=SVMWQ1yTl8P1FAZD/+XkwDg0tUJFoGbC8vp1wUY9EsHLTatB/TJ8webC30GbeADB4XgdwoeqR0JXsR/BPzU7wQba0MC3kEhBCgpLQYZrdcHy9NjAeS/OQDi3ecDhdIVA
lpc_rms=-35.28
pitch_keycenter=a#2
sample=Solocello_tenuto_quarter_PP_A#2.opus
</region>

<region>
hikey=a#3
hivel=127
lokey=a3
lovel=1
lpc=c7rAQpRmV8OiJgNDCyKJwdQlHUKVkRXC2uN1vy7LtD/0N/A/RUoWwSuzzkFdHMnAseDgwUC8+kHcrbTBXiriQFzbtEA5iFPA+RQ+QdiCH8EQYLfA+BfWQESkB8ECvNlA
lpc_rms=-37.50
pitch_keycenter=a#3
sample=Solocello_tenuto_quarter_PP_A#3.opus
</region>

<region>
hikey=a#4
hivel=127
lokey=a4
lovel=1
lpc=DJw1QbLg1MG5Uc5BASeGwc7cTkHDWSjBJ2LSQEz3esBQTQpAs8/uv18GKkD9QoA+zcNbwIEcG0DE6jO//MKPP5H5yr8dxIs/iKcoPveOZL+QkHw+mbugvxxrMkBc0JG/
lpc_rms=-49.85
pitch_keycenter=a#4
sample=Solocello_tenuto_quarter_PP_A#4.opus
</region>

<region>
hivel=127
key=c2
lovel=1
lpc=llEBQ05uisOdRwxDpKcgP0aSgEJZdmHCD2s8wf/gEsGTnMFBWe4owT911kE3T53Bjy/qwaDbFkIHRj+/rFdSvBdVtMEt7XRBKWY9Qd8BhMGhTOQ+GaD7P9+ob7/aWQJA
lpc_rms=-38.66
sample=Solocello_tenuto_quarter_PP_C2.opus
</region>

<region>
hikey=c3
hivel=127
lokey=b2
lovel=1
lpc=MvKTQvpuD8M+nYBCaXDJwEeb10H0LvLA6G6TwHDfIcHK49E/GOPWv9DZkUGxb8fAHm6hwW0Ww0EX/zPB0Qo5PreGBMDS7uxAiJS/QP5+HsHde8XAl4YHQRGdTsAu2Lc/
lpc_rms=-43.09
pitch_keycenter=c3
sample=Solocello_tenuto_quarter_PP_C3.opus
</region>

<region>
hikey=c4
hivel=127
lokey=b3
lovel=1
lpc=68ZkQiHZ/sL1F5lCIqYnwTFh4EEn3/TB9sQUQfVvTsHw+4NBc9VowW9TtkHcvWLB6hRRwSTsq0HEOw3BepKtQNMxIMFxAI1AoDNPQEcSgcCtFne9pwmlQLS3wsCwQiBA
lpc_rms=-41.96
pitch_keycenter=c4
sample=Solocello_tenuto_quarter_PP_C4.opus
</region>

<region>
hikey=c5
hivel=127
lokey=b4
lovel=1
lpc=Vz6AQWeiGsI5MB1CYYPQwX8JnUF7tpbBlLZoQTnHwMA6lkRAnEy8wHiynkCTmFe+IB5AwK7VqEDWRr7AusIwQFUvwr5UDjNAGvGpwOmxokCgCCjAVpTWP45M0b8NJXk/
lpc_rms=-43.90
pitch_keycenter=c5
sample=Solocello_tenuto_quarter_PP_C5.opus
</region>

<region>
hikey=d2
hivel=127
lokey=c#2
lovel=1
lpc=zFlSQgzHxMJbIw9Cc0DKvSTJ90ExDnHBAKwJwb1Kr8CF/+5A0TtVP2Pm0UCfVIDAAQptwT3Wc0EleA1A9RLBvxpTAsH5mjtAuJmaQEnAsb/fSCG+ye6Nv0bIucBtpK1A
lpc_rms=-44.16
pitch_keycenter=d2
sample=Solocello_tenuto_quarter_PP_D2.opus
</region>

<region>
hikey=d3
hivel=127
lokey=c#3
lovel=1
lpc=kSiyQsD0LsMwa4xC4Ju2QPSVH0KyW6LBqx2AwUTjjL+KkbpAtuYCwYT0xEGRV7TAzQnawUfQ0EH9C57A61lowJ+gx7+Hz9e84t8XQR4KH8EK0DNAN46cP/a1WcA1DhNA
lpc_rms=-40.11
pitch_keycenter=d3
sample=Solocello_tenuto_quarter_PP_D3.opus
</region>

<region>
hikey=d4
hivel=127
lokey=c#4
lovel=1
lpc=/wa6Qa1fZsLF/FVCtNDZwcyMm0GX5ZbBmK0fQaQ7nL9Gg2rA5jopQDhykD/WOyY/eLTzwPtmR0Er/CzBGLDIQKWfq8CvkshAXC1hwBSrPL6Rme8+WXQovj0+dT9AD56+
lpc_rms=-46.96
pitch_keycenter=d4
sample=Solocello_tenuto_quarter_PP_D4.opus
</region>

<region>
hikey=d5
hivel=127
lokey=c#5
lovel=1
lpc=w5z7QNqyhMEx0XhB4QspwYvnAkEb17jA16VdQLWCM8DhKElAXTQ7wGPA1j9NhAk+FDmVv3fX2j8p1+y/dmWqP4a8+r9oUEJAUcABwI5z9j+mLqK/BRhXP6cgl78IXjw/
lpc_rms=-51.49
pitch_keycenter=d5
sample=Solocello_tenuto_quarter_PP_D5.opus
</region>

<region>
hikey=e2
hivel=127
lokey=d#2
lovel=1
lpc=+hkJQ7+uj8PmphBD/nA0wUm2mEKkU3jC/F5fQGHEkcHTOBBBxgf8QKIag0FSDATB5/8NwiVJG0K2S7/Aosq6QMYD0cFBw79BokXcv5k9G8G58lFArJQUv1UxE8EjCBpB
lpc_rms=-34.82
pitch_keycenter=e2
sample=Solocello_tenuto_quarter_PP_E2.opus
</region>

<region>
hikey=e3
hivel=127
lokey=d#3
lovel=1
lpc=e3oLQ2nskMNwwRZD51XiwQ06r0LQaVnCeXQdwUwdQcFR6fpAsBkpvx4UBkJVWaDB7aYdwsSveEIpU/jBd+EoQVm+p8GuFqpBnBiwQE8EF8EtZs0/4dtQwZyCkUAAlY9A
lpc_rms=-34.76
pitch_keycenter=e3
sample=Solocello_tenuto_quarter_PP_E3.opus
</region>

<region>
hikey=e4
hivel=127
lokey=d#4
lovel=1
lpc=5jtlQv9XGsN3hB9D98eywgbFYEI84mPCe3cCQkJocj/qYDnB5PEHQVxPaL8M1xnAp4+PwDVdjUG2GIrBy+vqQNzgL8Fl6p1BfX45wZQep8Bs4AxAZmQlQdjtF8Evqj1A
lpc_rms=-37.66
pitch_keycenter=e4
sample=Solocello_tenuto_quarter_PP_E4.opus
</region>

<region>
hikey=e5
hivel=127
lokey=d#5
lovel=1
lpc=8ynsQVQNYsKCB0xCNy4hwm2IGkJ/DQbCyg66QWxpM8G5TRZAg6uZvqhX+kBtQy7BdWgmQcFJHsAKfPC+jB8yv7wgr8CBSy9BWrPJwJEGqb/m625AT12cv9TZW0ABPN2+
lpc_rms=-41.28
pitch_keycenter=e5
sample=Solocello_tenuto_quarter_PP_E5.opus
</region>

<region>
hikey=f#2
hivel=127
lokey=f2
lovel=1
lpc=wwszQ1KFtMMVGSZDfLHiwRHkBUOh97vCgDOGvdUfgcFjBbFBVf08wTKIB0KC/4HB4Uk3ws1ke0LQ3W7B3JXEv/9P2MFgZN5BiB+eQGpMicHVhGc/w6oJQADpK8FI8DpB
lpc_rms=-33.23
pitch_keycenter=f#2
sample=Solocello_tenuto_quarter_PP_F#2.opus
</region>

<region>
hikey=f#3
hivel=127
lokey=f3
lovel=1
lpc=2CTMQvQMf8NP90tDALOEwu6bikIPtbTCvfU7QkIgBsI6xOZBIodJwa7rHkLcKCrC6JOtwRzKa0ITjQTCAaAdQdPNsMBxVLZAHtuOv2/WK8HkiMNAizpAQbeWr8F/PTVB
lpc_rms=-35.80
pitch_keycenter=f#3
sample=Solocello_tenuto_quarter_PP_F#3.opus
</region>

<region>
hikey=f#4
hivel=127
lokey=f4
lovel=1
lpc=4B7rQZlOncJFhJ9C8UYowkPYzEEGY9PBu0VBQaTkzECrLgHBgzyWQJew0r76wcDAWckdwInVjUGK6lXBRx8SPw32YcCgeAxBnEozPyEo+cDqdUpACgrBP9L8vr9NGOE+
lpc_rms=-39.39
pitch_keycenter=f#4
sample=Solocello_tenuto_quarter_PP_F#4.opus
</region>

<region>
hikey=B6
hivel=127
lokey=f5
lovel=1
lpc=WFbBQRzRQcLDFDpCfIkXwju4DULSu9vBPjJsQcKyF8H0PftAgwb1vTY2g75Un1VAjQrswLnLykDjQ3zAaz/hP14uAT+6AT3AqS1XQM/PSr8AkCpAVtvuPwy/XMA/8FY/
lpc_rms=-42.42
pitch_keycenter=F#5
sample=Solocello_tenuto_quarter_PP_F#5.opus
</region>

<region>
hikey=g#2
hivel=127
lokey=g2
lovel=1
lpc=Z8BNQ+oD1cNI8URDGo/XwCoj90JXPMnCWk1EQTc1FcJw7wZCfKOxwa/5NUJo/UI/fbmVwttGlUK+iEHBmCdWwVXcJcEDoTFBNy6wQWc+mcG6gojBeeNqQeJoMME36SBB
lpc_rms=-32.76
pitch_keycenter=g#2
sample=Solocello_tenuto_quarter_PP_G#2.opus
</region>

<region>
hikey=g#3
hivel=127
lokey=g3
lovel=1
lpc=L6KGQvuNG8NxsstCS7gZwdr1VkFKOcjBNVtdQRFhbMGDdWdBBLarwRjD4EE4vA/BpTGLwXPovEH5cfPAqfjowNsag0C9JcQ/AOJoQPfTPcD0iIbAIvIOQOywZkAgwyXA
lpc_rms=-37.94
pitch_keycenter=g#3
sample=Solocello_tenuto_quarter_PP_G#3.opus
</region>

<region>
hikey=g#4
hivel=127
lokey=g4
lovel=1
lpc=3bDDQXdUccJiQWtCMjgSwtlMzEHTIaPB18tBQftWlMDd0Is/DeUdQKMBgb9hJKS/e92YwBlcPUHf7xDBId8iQLLlAcA8j6ZAYYSIwHyY6T8iavK/l0ePvzuBJkDcfKK+
lpc_rms=-44.83
pitch_keycenter=g#4
sample=Solocello_tenuto_quarter_PP_G#4.opus
</region>
</group>

<group>
group_label=Group_43-84
lpc_hicc1=84
lpc_locc1=43

<region>
hikey=a#2
hivel=127
lokey=a2
lovel=1
lpc=nDnZQllmhcNQ8TdDW005wW+tsUEC7FrCIwvBQXWIjMEFruxAyuRDQfZEp8ARNnE/Be4OwkqgfkL7BrvBDr1zwV+pEcFH8+RBdtZbwcaeLkBQfx7Am4ITQAV/5b96dGY/
lpc_rms=-33.28
pitch_keycenter=a#2
sample=Solocello_tenuto_quarter_MF_A#2.opus
</region>

<region>
hikey=a#3
hivel=127
lokey=a3
lovel=1
lpc=2awwQtCH0cJKqKNC2ODcwQQelkFVYofBk7SbQEpdQ8ARIRdAMgh0QHM9pMAQ7yZA19jOwF1hW0FrdBvBZ37YPsb1mL8PQsRAExkjwJtOxz23hlXAVKdaQKenhcBA2kRA
lpc_rms=-37.42
pitch_keycenter=a#3
sample=Solocello_tenuto_quarter_MF_A#3.opus
</region>

<region>
hikey=a#4
hivel=127
lokey=a4
lovel=1
lpc=ZfHTQFdkZ8GByU1BFATzwFXG00C7jr/Aom9eQD+QxL+Wx4a+EKT0P70ciL9nigs+YXtrvxtuzj8N8Wy/JPw2vvOxrj6V0QQ9SjanvtWmST8J3iu/htZbP3c2hb8+7vI+
lpc_rms=-44.63
pitch_keycenter=a#4
sample=Solocello_tenuto_quarter_MF_A#4.opus
</region>

<region>
hivel=127
key=c2
lovel=1
lpc=X7lgQqWy9cLrA4tCXSFFQNW4GEG8CM7BjwdjQQZTGMCn4YTA80fpP0ierMBCPetAU6tPwGRJJ0EInZfA9Mi7wC1NDMCtCABBNY+1v/sn+8DvQSNBLfxgvwdFBMGSIJ1A
lpc_rms=-41.05
sample=Solocello_tenuto_quarter_MF_C2.opus
</region>

<region>
hikey=c3
hivel=127
lokey=b2
lovel=1
lpc=9dGGQndOJsNpjgRDnfgswg6HDEKjayXCOJiWQVZjOcA/tQK/XrqawEZXS0GnpAnBs0MXwZ2DwUEofYfBHFGDQLjIhcBYByxBfcRNwfFBBUG5vBDAKPTSP1dersCuzGFA
lpc_rms=-36.76
pitch_keycenter=c3
sample=Solocello_tenuto_quarter_MF_C3.opus
</region>

<region>
hikey=c4
hivel=127
lokey=b3
lovel=1
lpc=fa0lQpiD08K3xL5CZW4swuuUyEGZjZbB9CMbQU8AhcDFg5LABTgeQdcGDMHPgwVB1oo/wd5vhUEOvEbBV0XsP3GEC0C/xp2/1m2sQPEH/sBLIgpAHsgmQNFWT8DJpN8/
lpc_rms=-37.60
pitch_keycenter=c4
sample=Solocello_tenuto_quarter_MF_C4.opus
</region>

<region>
hikey=c5
hivel=127
lokey=b4
lovel=1
lpc=1GqOQchEK8LFNSFCjge0wXIlhUGayIbB7lVhQaNQIsFTfQFB9SbLwBmstUAtYr3AiEwUP07i2kBmw/rAxDW0QN7gNsCN/OI/PEa4v+XnUL9dKjNA97NFwAn6AUB3APu8
lpc_rms=-35.84
pitch_keycenter=c5
sample=Solocello_tenuto_quarter_MF_C5.opus
</region>

<region>
hikey=d2
hivel=127
lokey=c#2
lovel=1
lpc=7wlUQo3T08KZyypCvjQZQW1rr0EGmKvB8jodQKgsAcHoXIFAuZPVv+bZAb/ErRtB8/0UwVOSGEHwJby+bin8wMPKnL/lKHlAFgfWvzuhnj8TilJA+gxSv5TO7MBMVaVA
lpc_rms=-39.86
pitch_keycenter=d2
sample=Solocello_tenuto_quarter_MF_D2.opus
</region>

<region>
hikey=d3
hivel=127
lokey=c#3
lovel=1
lpc=oSYYQnLjtMKLhIRCFaFXwV1HMkHjG4LBB2QtQDr8iECuOrDA+FQOQH6SX0Anabg/eupXwev1j0HnDhDBprLzv4ceJ0DefP8/o9NOwNetRkDjclTAFWdEQPRyVsCsMek/
lpc_rms=-41.38
pitch_keycenter=d3
sample=Solocello_tenuto_quarter_MF_D3.opus
</region>

<region>
hikey=d4
hivel=127
lokey=c#4
lovel=1
lpc=lD6qQcU4XcLZUFZC94vdwYzxnEFALJ/BNiNPQbob98BRDsZAHljiwP8eJUFioB3BHTFsQJhfMEBiV2zA3wUOv/eXkj/zu+o/gKcnPmo2L8B1yHM/pReqP44x97+XT4Q/
lpc_rms=-40.59
pitch_keycenter=d4
sample=Solocello_tenuto_quarter_MF_D4.opus
</region>

<region>
hikey=d5
hivel=127
lokey=c#5
lovel=1
lpc=haoPQYL6ksHRAHlB8yMPwXpV2UANZpPAeTpLQK7pBsCAxTQ+M0eSPXgfjz84Rp2/3CQZvwuX5T9nYpe/0fGeP9o6O7/oao4+cbH9vh1JPz9k+xC/PrqiP3eq/77jgJ08
lpc_rms=-41.00
pitch_keycenter=d5
sample=Solocello_tenuto_quarter_MF_D5.opus
</region>

<region>
hikey=e2
hivel=127
lokey=d#2
lovel=1
lpc=bj67QkIaQMPQyqNCC7fHQR8CtEGtMgPCJoetv8NgkLzJLOXAl7EFQRPlyj8NwABBlaBdwXpigEF4x/Y+/0OCwWpxNj4wQGNBTX5RwcZ8MUDzAmhBLzJZwcwQLMGomkJB
lpc_rms=-35.24
pitch_keycenter=e2
sample=Solocello_tenuto_quarter_MF_E2.opus
</region>

<region>
hikey=e3
hivel=127
lokey=d#3
lovel=1
lpc=rgSIQp+THsNsEuBCg4m9wb3Ph0GJr4jB5FO6PxQVncAtZ7FACHCZPoOG3EDSdSjBn3VYwGHdmEGQOYPB6iCfQE99rL+r17+/zH40QcahbcEySnBAHefFQOEnA8H4soZA
lpc_rms=-33.46
pitch_keycenter=e3
sample=Solocello_tenuto_quarter_MF_E3.opus
</region>

<region>
hikey=e4
hivel=127
lokey=d#4
lovel=1
lpc=eeatQZ43YML812FCYb0OwsFW2UE0vKPBt3ESQR6Zzb8wRmHA5nBeQCfrNz/h+40/ZAl2wIcHQECRYJHAA4x6QPPqWL8PzFlAxMzFwMNxkkAEmXPABDG1QIJDm8BdA7s/
lpc_rms=-39.03
pitch_keycenter=e4
sample=Solocello_tenuto_quarter_MF_E4.opus
</region>

<region>
hikey=e5
hivel=127
lokey=d#5
lovel=1
lpc=xN+YQcSsIMJTsgZCNGGewRK6fEGJuRTBa4LRQBmwtcB1Gac/nx48vuE2GUD37R3A6mI3QLt2FT2mHZW+MHwBwGFOv760swtA4c7VPxElhb538xbAZONdQE7ltMDZRZNA
lpc_rms=-36.19
pitch_keycenter=e5
sample=Solocello_tenuto_quarter_MF_E5.opus
</region>

<region>
hikey=f#2
hivel=127
lokey=f2
lovel=1
lpc=IIAMQzvzosNI/09D6+CIwTinRkKrzo3C4u7fvyxAiEHgP/C/0YnLwG5PsUGKn5bB/oe0wGNF+EGSRznBxbeNwRXlAkGm+zJBWYmZwZlbmL1fXopBPaADQd8DCsL1z5NB
lpc_rms=-31.20
pitch_keycenter=f#2
sample=Solocello_tenuto_quarter_MF_F#2.opus
</region>

<region>
hikey=f#3
hivel=127
lokey=f3
lovel=1
lpc=WU4+Qog468I1sNBCnllGwk9V/UEWRbvBe0Y0QT0cI8FThBtB/f2+wMVgqkB+2qHA94+cwI8ZjUEVQYHBbgnKQOscFcBZECxARsXLP3t19cDXZ6xAwrjcP9SUc8A7BNo/
lpc_rms=-36.73
pitch_keycenter=f#3
sample=Solocello_tenuto_quarter_MF_F#3.opus
</region>

<region>
hikey=f#4
hivel=127
lokey=f4
lovel=1
lpc=wdAnQbCYv8FJLq9B2RxjwbhRRkGlhyrBQyTWQP6NbsB2ex5ATCuQv0ZzoD4AhUq/6JGMPup94z8NHxzAGJejP2nm8b8aaCFAtt+iv+Lvtz+u9uS/Ka+hP1S4lr/ycUk/
lpc_rms=-44.90
pitch_keycenter=f#4
sample=Solocello_tenuto_quarter_MF_F#4.opus
</region>

<region>
hikey=B6
hivel=127
lokey=f5
lovel=1
lpc=h94RQZzqcsFNmC9BF6DgwC9M5kCHGpbAT9pHQAe1wr+Vqym9AqrEPyJ9cL9DFyg8o2U/PwHDFj6t5i4/Iwk9v20SYD7XLGY/IkGBPko23736TEw8U6oGv6Amqj6rcKA/
lpc_rms=-41.10
pitch_keycenter=F#5
sample=Solocello_tenuto_quarter_MF_F#5.opus
</region>

<region>
hikey=g#2
hivel=127
lokey=g2
lovel=1
lpc=C9wJQ2viocPpr1FD2InSwXb/fkL0nKzCbjTkQSynkMEhz7ZB8cbLwdMM4kFKOWTBKf+yQNWjDkFB3fXAG07CwPrZ88DTb9lB9P/4wXOJE0EXzHBBwbH7v0AJmMEJ6i9B
lpc_rms=-32.58
pitch_keycenter=g#2
sample=Solocello_tenuto_quarter_MF_G#2.opus
</region>

<region>
hikey=g#3
hivel=127
lokey=g3
lovel=1
lpc=SI8qQgu70sKmAq9C6zYAwh6GnUEobofBxr+qQCzp0sD5Dx9BHs+rwAbXm0CKv6XAzziov7RBDEG9tujAqkhuv3ti5T9BuDBA+7+DwNeDs0AcdLDAiivnQOZ0M8HxxsBA
lpc_rms=-35.38
pitch_keycenter=g#3
sample=Solocello_tenuto_quarter_MF_G#3.opus
</region>

<region>
hikey=g#4
hivel=127
lokey=g4
lovel=1
lpc=9ByPQbufK8LEOyVC5t3ZwdlcqUFPT5rBuFyQQZDiW8H++NZAXmxFwCRsoEAB/pvAnLUcwGAiCkFeNwnB54XlQIDtuMAhpJ5AX+MqwLKy6j2GHYE+h2OTvzj2WD8KfaU+
lpc_rms=-37.59
pitch_keycenter=g#4
sample=Solocello_tenuto_quarter_MF_G#4.opus
</region>
</group>

<group>
group_label=Group_85-127
lpc_hicc1=127
lpc_locc1=85

<region>
hikey=a#2
hivel=127
lokey=a2
lovel=1
lpc=S3VKQj7y9MJsh8xCAdE4wkGjGEIl5gzCKMKbQfR8d8FZhYRB1eQmwUL7GD9isddAfY9pwf8Gj0GPwJTAm+4bwSLKokDOEAZBL+IEwdfsV0CU0UbAjesSQD9HBcCNh5U/
lpc_rms=-21.73
pitch_keycenter=a#2
sample=Solocello_tenuto_quarter_FF_A#2.opus
</region>

<region>
hikey=a#3
hivel=127
lokey=a3
lovel=1
lpc=H+27QeltUsIhKC5CfTjKwXHSvkFF+anBiQdlQduqPMFyCFtB2MxmwWN2GUEsGErA7HRIwGrDoUDCrC3AQHmWvWwgXj8TRH4/fH4ZQEEUv8BN5YJAZQWBwDukh0DXTLC/
lpc_rms=-22.57
pitch_keycenter=a#3
sample=Solocello_tenuto_quarter_FF_A#3.opus
</region>

<region>
hikey=a#4
hivel=127
lokey=a4
lovel=1
lpc=1EVgQKSPycAbiqtA5O18wJLrU0BsXgfATDvZP2vE/b8DQ8k/+AAsv6TUOT7HjlQ+oA4bvy8FJz83GQi/PMQwP4X8Hr/9zD8/zrNhv5VA6D4iKam9P4wzPNTDQz62Ifa8
lpc_rms=-33.45
pitch_keycenter=a#4
sample=Solocello_tenuto_quarter_FF_A#4.opus
</region>

<region>
hivel=127
key=c2
lovel=1
lpc=Tf6NQo0MPMO8DzRDAHCtwnXQQkKNHxTC7aY7Qf18lcDrhSBBClxCwDM9l8DyXrxANkCzwRxnEUIyM3LBCfXGv8ptt8AHBItAMdAwQULug8FkYMpAZLYNQc/WeMFT5eJA
lpc_rms=-20.96
sample=Solocello_tenuto_quarter_FF_C2.opus
</region>

<region>
hikey=c3
hivel=127
lokey=b2
lovel=1
lpc=Lq8nQm/00sLk08FCuQ9VwqA5MkKchCfCoUzQQQP0gcGbqHxByB5PwdhsrEB82NI/kvxSwaI/pUHI8ynB91Mavz9quL+MEg1BVscJwV0IqEDPRubAjiBBQTgBP8EwdpBA
lpc_rms=-24.46
pitch_keycenter=c3
sample=Solocello_tenuto_quarter_FF_C3.opus
</region>

<region>
hikey=c4
hivel=127
lokey=b3
lovel=1
lpc=e1gJQbmdk8FBRX1BW5UjwVKOEkFCpwXB0AvOQAo3ncBHl4dAhrZSwARiEUAVwirARtM6QFCNvL9MEFo/gIX7v7EEGEC5E/a/PgA4QDRRWsB9mOc/VVZVvzminD9zAzy/
lpc_rms=-27.74
pitch_keycenter=c4
sample=Solocello_tenuto_quarter_FF_C4.opus
</region>

<region>
hikey=c5
hivel=127
lokey=b4
lovel=1
lpc=e6iuQLljG8GxFPNAaLapwPikpkBatWDAaHsvP5peDb9uBwJA46SPvwUaFrzVKhC/4XcCPWAibT9Vqm++1aYmv8zdHD+8bam+rgVrPxuLXr9P0fc+ULTrvmUdSD+awum9
lpc_rms=-28.90
pitch_keycenter=c5
sample=Solocello_tenuto_quarter_FF_C5.opus
</region>

<region>
hikey=d2
hivel=127
lokey=c#2
lovel=1
lpc=s6UoQux/08JlZLtCQJopwh891EG65KPB7HjiQDmoAr/hDYDAqIc0QfDdYsEcxSNBvUhYwaIyoUFupDzBtFx7QBfv6cA7E8RAypiDQByYCcGYr0JAp/0JQBIGMsBIOYc/
lpc_rms=-27.72
pitch_keycenter=d2
sample=Solocello_tenuto_quarter_FF_D2.opus
</region>

<region>
hikey=d3
hivel=127
lokey=c#3
lovel=1
lpc=FyfQQXGGd8K42E5Czxy6wfnOl0FlsqbBJM53QcdrRsGNBk1BPmM3wU3jDkGDrpDAEtaWwAVb8kDqY7Y+UKaewE8RBkB+ZDZA5I8DwMX21b8gw7q+kFVCQC3f0r/h1t89
lpc_rms=-26.34
pitch_keycenter=d3
sample=Solocello_tenuto_quarter_FF_D3.opus
</region>

<region>
hikey=d4
hivel=127
lokey=c#4
lovel=1
lpc=jF0MQQ7PisFDk1RBaSnswPCd50Cuy83AEdR3QN67MMBzyw9AolcqwOw+O0CKk07AW7oqQIea2L9hdt0/Z5TTv0G9yr2EPVW+fbkLQGUz8b8WjJY/37N2v3T0Ez/O8EI+
lpc_rms=-27.24
pitch_keycenter=d4
sample=Solocello_tenuto_quarter_FF_D4.opus
</region>

<region>
hikey=d5
hivel=127
lokey=c#5
lovel=1
lpc=+NmsQAb/E8GHjdxARbKLwPQ+jEATXx7AMTLZP/aqUMAusDhA07XDv/pizD+7gJu/3fsbPZzKLb1SH0k/gediv8TTCD/Lnqc+z4fCvqi4lT6VOfA+F4Iivp8zmb6iVRE/
lpc_rms=-29.58
pitch_keycenter=d5
sample=Solocello_tenuto_quarter_FF_D5.opus
</region>

<region>
hikey=e2
hivel=127
lokey=d#2
lovel=1
lpc=kgCZQuOnPsPOgyNDCHiTwh/vY0Ka0i/CPZM7QWxPwcCOoitAouolQeEv08AjWrXA66bxv0JdaEHwUDvArAbNwJeh18CvJD1BN57nQOcPiMFkWQ5BaoLIwPCCc0AipYk9
lpc_rms=-22.32
pitch_keycenter=e2
sample=Solocello_tenuto_quarter_FF_E2.opus
</region>

<region>
hikey=e3
hivel=127
lokey=d#3
lovel=1
lpc=oWo1Qh5t08KeO6dCZoUMwnKhAkLnXyLCXlb7QdkrjsHL/XZBTTawwa6+q0HSqNPAUB5xwQKIzEHRCpHBEL3vQOQ71MBDx3BBZ/FpwZREJUBP111AAWmFv+NTScCFRCdA
lpc_rms=-20.29
pitch_keycenter=e3
sample=Solocello_tenuto_quarter_FF_E3.opus
</region>

<region>
hikey=e4
hivel=127
lokey=d#4
lovel=1
lpc=04hhQZuy6cG6R7BBD4Y/wUCVOEHbZiLBdL/4QNz5ucAhVCtA4xFiwLsRvUBPBIXAPLAZv/okMUAPYr2/1PJJP/r9jr8cUlG9ssNRQO5rnMD9NU1A2fOvvpvVtz3aPKS+
lpc_rms=-22.51
pitch_keycenter=e4
sample=Solocello_tenuto_quarter_FF_E4.opus
</region>

<region>
hikey=e5
hivel=127
lokey=d#5
lovel=1
lpc=uAHAQGK/J8GVlwRBpFTCwASeuEBaaFrAzVx6P03Uob/bn+s/znVDvwVgYz/LtKG/nhYIPyf0LT94IAa9uutPvo45Zr+bm6Y/a/Z1vkEygj5HHKO+nnQHvxRUoj9akHu+
lpc_rms=-28.53
pitch_keycenter=e5
sample=Solocello_tenuto_quarter_FF_E5.opus
</region>

<region>
hikey=f#2
hivel=127
lokey=f2
lovel=1
lpc=kIudQtbvRsMmXTZDMNm3wsVgdUIC1SvCWeiqQL8gL0EuHAvB5lAjQaZYFsFvpO0+7P4wwdfp1UHaTifBhexdwMPlkcC4KU1AJU1XQWqgksH+as5AGN23QD+ZFcF7O41A
lpc_rms=-21.66
pitch_keycenter=f#2
sample=Solocello_tenuto_quarter_FF_F#2.opus
</region>

<region>
hikey=f#3
hivel=127
lokey=f3
lovel=1
lpc=UYcCQsg4msK5K4BCdpTjwaLduEG49tTBWMuPQU1HIsFLEj9BLQmHwbqkekFdxKbAQf0dwUwXhEFuOfbAK3Hyvj1GWb7tUTVAK/XWvnBkpsC7lo9AiJL2P3Ezl8B2dAFA
lpc_rms=-22.47
pitch_keycenter=f#3
sample=Solocello_tenuto_quarter_FF_F#3.opus
</region>

<region>
hikey=f#4
hivel=127
lokey=f4
lovel=1
lpc=Ck0DQaK6fsEstjZBAqm7wBr4s0Dwyq3A8Jt4QJhWC8B2f54/nAIawIiUXEC/iwfANKD4vheRsj9NnLa+VqYVv9ZeMz0++BU/GS6WPwVFT8DXkBZAMG1svoq7vz7jf7++
lpc_rms=-26.75
pitch_keycenter=f#4
sample=Solocello_tenuto_quarter_FF_F#4.opus
</region>

<region>
hikey=B6
hivel=127
lokey=f5
lovel=1
lpc=+Ob0QGxqPMFxNfxAdTauwAEO20A5iSrA3wrov/uKCUDlesG+zKOJPz0ljL9mJSk/tpBzPuZG1z9tSn+//5m2vxxO/j/4h2m/soT7P/EVhL6nW4e/GySfP9hqr7/Rxf4/
lpc_rms=-27.43
pitch_keycenter=F#5
sample=Solocello_tenuto_quarter_FF_F#5.opus
</region>

<region>
hikey=g#2
hivel=127
lokey=g2
lovel=1
lpc=A7uhQoj9TsOftztD7Fi9wtBjlkKTYILCfFoGQlAdysE9ucxB1eZVwV5xUb/6vMxAsViVwe7TJUI72jTCsPv3QUkMv8HN0LVBmcXFwJPkO8F4NFVBLD8SwROtjUCHboG/
lpc_rms=-21.74
pitch_keycenter=g#2
sample=Solocello_tenuto_quarter_FF_G#2.opus
</region>

<region>
hikey=g#3
hivel=127
lokey=g3
lovel=1
lpc=BJ7UQWeVecLexFJCl2Ljwe7b2UH3ws3B9uiCQXWCJsGAWepA2hYCwVFE+UD3O68+rBY0wRRsfUG9yEDBYyC8QANnr8D4cAhBGqlLwCeoacByVzJAvNIYP8W+e7/3iYc8
lpc_rms=-22.69
pitch_keycenter=g#3
sample=Solocello_tenuto_quarter_FF_G#3.opus
</region>

<region>
hikey=g#4
hivel=127
lokey=g4
lovel=1
lpc=mO6zQHW+LcG+mBBBSirLwDGqs0A16ZHAh41yQO19VMAIwRRA04i/v+y5CkBdPh7APMibP7+Pw75WIPg+mdKev7M8xT8c8xW/OfMpP7Qdnr9c87Q/8rO1vw09wj9Xo1O/
lpc_rms=-28.76
pitch_keycenter=g#4
sample=Solocello_tenuto_quarter_FF_G#4.opus
</region>
</group>